<?xml version="1.0" encoding="UTF-8" standalone="no"?>
<svg
   xmlns:dc="http://purl.org/dc/elements/1.1/"
   xmlns:cc="http://creativecommons.org/ns#"
   xmlns:rdf="http://www.w3.org/1999/02/22-rdf-syntax-ns#"
   xmlns:svg="http://www.w3.org/2000/svg"
   xmlns="http://www.w3.org/2000/svg"
   xmlns:sodipodi="http://sodipodi.sourceforge.net/DTD/sodipodi-0.dtd"
   xmlns:inkscape="http://www.inkscape.org/namespaces/inkscape"
   inkscape:version="1.0beta2 (969f793, 2020-01-16)"
   sodipodi:docname="fantom_3_4_scheme.svg"
   viewBox="0 0 558.22015 556.64777"
   height="556.64777"
   width="558.22015"
   id="svg2"
   version="1.1">
  <metadata
     id="metadata8">
    <rdf:RDF>
      <cc:Work
         rdf:about="">
        <dc:format>image/svg+xml</dc:format>
        <dc:type
           rdf:resource="http://purl.org/dc/dcmitype/StillImage" />
        <dc:title></dc:title>
      </cc:Work>
    </rdf:RDF>
  </metadata>
  <defs
     id="defs6" />
  <sodipodi:namedview
     inkscape:current-layer="g10"
     inkscape:window-maximized="1"
     inkscape:window-y="-8"
     inkscape:window-x="-8"
     inkscape:cy="266.7833"
     inkscape:cx="235.01422"
     inkscape:zoom="1.2718994"
     showgrid="false"
     id="namedview4"
     inkscape:window-height="1017"
     inkscape:window-width="1920"
     inkscape:pageshadow="2"
     inkscape:pageopacity="0"
     guidetolerance="10"
     gridtolerance="10"
     objecttolerance="10"
     borderopacity="1"
     inkscape:document-rotation="0"
     bordercolor="#666666"
     pagecolor="#ffffff" />
  <g
     transform="translate(-46.387318,-47.959766)"
     id="g10"
     inkscape:label="Image"
     inkscape:groupmode="layer">
    <path
       d="M 604.13998,325.49796 A 278.64227,277.65344 0 0 1 327.3827,603.14504 278.64227,277.65344 0 0 1 46.880942,329.25447 278.64227,277.65344 0 0 1 319.84309,47.901691 278.64227,277.65344 0 0 1 604.03797,317.98562"
       sodipodi:arc-type="arc"
       sodipodi:open="true"
       sodipodi:end="6.2561255"
       sodipodi:start="0"
       sodipodi:ry="277.65344"
       sodipodi:rx="278.64227"
       sodipodi:cy="325.49796"
       sodipodi:cx="325.49771"
       sodipodi:type="arc"
       id="path839"
       style="fill:#39ff00;fill-opacity:1;stroke:#000000;stroke-width:2.57257;stroke-miterlimit:10;stroke-dasharray:none;stroke-opacity:1" />
    <path
       d="m 273.88319,480.76782 a 46.270752,46.637981 0 0 1 -45.82194,46.63579 46.270752,46.637981 0 0 1 -46.71085,-45.7311 46.270752,46.637981 0 0 1 44.9158,-47.52293 46.270752,46.637981 0 0 1 47.58217,44.8092"
       sodipodi:arc-type="arc"
       sodipodi:open="true"
       sodipodi:end="6.2443866"
       sodipodi:start="0"
       sodipodi:ry="46.637981"
       sodipodi:rx="46.270752"
       sodipodi:cy="480.76782"
       sodipodi:cx="227.61244"
       sodipodi:type="arc"
       id="path841"
       style="fill:#ff0000;fill-opacity:1;stroke:none;stroke-width:2.34818;stroke-miterlimit:10;stroke-dasharray:none;stroke-opacity:1" />
    <path
       style="fill:#ff0000;fill-opacity:1;stroke:none;stroke-width:2.34818;stroke-miterlimit:10;stroke-dasharray:none;stroke-opacity:1"
       id="path841-4"
       sodipodi:type="arc"
       sodipodi:cx="198.12889"
       sodipodi:cy="229.57791"
       sodipodi:rx="46.270752"
       sodipodi:ry="46.637981"
       sodipodi:start="0"
       sodipodi:end="6.2443866"
       sodipodi:open="true"
       sodipodi:arc-type="arc"
       d="m 244.39964,229.57791 a 46.270752,46.637981 0 0 1 -45.82194,46.63579 46.270752,46.637981 0 0 1 -46.71085,-45.7311 46.270752,46.637981 0 0 1 44.9158,-47.52293 46.270752,46.637981 0 0 1 47.58217,44.8092" />
    <path
       style="fill:#ff0000;fill-opacity:1;stroke:none;stroke-width:3.63266;stroke-miterlimit:10;stroke-dasharray:none;stroke-opacity:1"
       id="path841-9"
       sodipodi:type="arc"
       sodipodi:cx="435.1644"
       sodipodi:cy="292.25754"
       sodipodi:rx="71.581276"
       sodipodi:ry="72.149384"
       sodipodi:start="0"
       sodipodi:end="6.2443866"
       sodipodi:open="true"
       sodipodi:arc-type="arc"
       d="m 506.74567,292.25754 a 71.581276,72.149384 0 0 1 -70.88697,72.14599 71.581276,72.149384 0 0 1 -72.26211,-70.74643 71.581276,72.149384 0 0 1 69.48516,-73.5184 71.581276,72.149384 0 0 1 73.61005,69.32024" />
    <rect
       y="47.959766"
       x="46.387318"
       height="556.64777"
       width="558.22015"
       id="rect870"
       style="font-variation-settings:normal;opacity:1;vector-effect:none;fill:none;fill-opacity:1;fill-rule:evenodd;stroke:none;stroke-width:1;stroke-linecap:butt;stroke-linejoin:miter;stroke-miterlimit:10;stroke-dasharray:none;stroke-dashoffset:0;stroke-opacity:1;stop-color:#000000;stop-opacity:1" />
  </g>
</svg>
